<svg version="1.2" xmlns="http://www.w3.org/2000/svg" viewBox="0 0 11559 4250" width="250" height="92"><style>.a{fill:#4478fa}</style><path class="a" d="m1481.5 416.4c0-249.8 148.9-416.2 468.8-416.2 249.7 0 359.2 113.9 359.2 302.3 0 254.1-140.2 420.5-464.4 420.5-249.7 0-363.6-113.8-363.6-306.6zm-1060.3 3268.3h319.8c236.6 0 368-96.3 411.9-394.2l319.8-2282.7h670.3l-311 2199.4c-100.8 731.7-394.3 1042.8-1095.3 1042.8h-280.4z"/><path fill-rule="evenodd" class="a" d="m2589.8 2431.7c0-950.7 490.7-1467.7 1502.8-1467.7 775.5 0 1165.4 359.3 1165.4 1029.6 0 950.7-486.3 1467.7-1498.4 1467.7-779.8 0-1169.8-359.2-1169.8-1029.6zm1984.7-363.6c0-354.9-170.8-521.4-556.4-521.4-530.1 0-740.4 284.8-740.4 810.6 0 350.5 170.9 521.3 552 521.3 543.3 0 744.8-289.1 744.8-810.5z"/><path fill-rule="evenodd" class="a" d="m8412.4 1993.6c0 810.5-433.8 1467.7-1415.1 1467.7-635.3 0-985.8-96.4-1266.2-262.8l438.1-3110.7h666l-175.3 1239.9c262.9-254.1 547.6-363.7 867.5-363.7 517 0 885 284.8 885 1029.6zm-692.2 74.5c0-333-87.7-512.6-394.4-512.6-315.4 0-573.9 188.4-753.5 411.8l-122.7 841.2c157.7 52.6 324.2 74.5 565.2 74.5 543.3 0 705.4-368 705.4-814.9z"/><path fill-rule="evenodd" class="a" d="m8889.9 2431.7c0-950.7 490.7-1467.7 1502.8-1467.7 775.4 0 1165.3 359.3 1165.3 1029.6 0 950.7-486.3 1467.7-1498.3 1467.7-779.9 0-1169.8-359.2-1169.8-1029.6zm1984.7-363.6c0-354.9-170.9-521.4-556.4-521.4-530.2 0-740.5 284.8-740.5 810.6 0 350.5 170.9 521.3 552.1 521.3 543.2 0 744.8-289.1 744.8-810.5z"/><path class="a" d="m1764.4 1452.2c0 0-76.3 311.5-404.3 460.6-253.3 115.1-927.5 145.3-1221.5 153.1l-138.2-239.4c1002.5-31 1472.3-818.7 1472.3-818.7z"/></svg>